<svg xmlns="http://www.w3.org/2000/svg" xmlns:xlink="http://www.w3.org/1999/xlink" width="470.772" height="322.931" viewBox="0 0 470.772 322.931">
  <defs>
    <clipPath id="clip-path">
      <rect id="Rectangle_1396" data-name="Rectangle 1396" width="294.082" height="185.259" rx="15" transform="translate(768.823 271.429)" fill="none"/>
    </clipPath>
  </defs>
  <g id="Group_796" data-name="Group 796" transform="translate(-680.228 -189.464)">
    <path id="Path_595" data-name="Path 595" d="M709.2,218.04h-2.278v-2.278a1.684,1.684,0,0,0-3.367,0v2.278h-2.773a1.684,1.684,0,0,0,0,3.367h2.773v2.773a1.684,1.684,0,0,0,3.367,0v-2.773H709.2a1.684,1.684,0,0,0,0-3.367Z" fill="#bad8e5"/>
    <path id="Path_596" data-name="Path 596" d="M958.582,193.425H956.3v-2.277a1.684,1.684,0,1,0-3.367,0v2.277h-2.773a1.684,1.684,0,1,0,0,3.367h2.773v2.773a1.684,1.684,0,1,0,3.367,0v-2.773h2.278a1.684,1.684,0,0,0,0-3.367Z" fill="#bad8e5"/>
    <path id="Path_597" data-name="Path 597" d="M829.03,193.425h-2.277v-2.277a1.684,1.684,0,1,0-3.368,0v2.277h-2.773a1.684,1.684,0,0,0,0,3.367h2.773v2.773a1.684,1.684,0,1,0,3.368,0v-2.773h2.277a1.684,1.684,0,1,0,0-3.367Z" fill="#bad8e5"/>
    <path id="Path_598" data-name="Path 598" d="M702.717,314.556H700.44v-2.278a1.684,1.684,0,0,0-3.367,0v2.278H694.3a1.684,1.684,0,1,0,0,3.367h2.773V320.7a1.684,1.684,0,0,0,3.367,0v-2.773h2.277a1.684,1.684,0,1,0,0-3.367Z" fill="#bad8e5"/>
    <path id="Path_599" data-name="Path 599" d="M741.583,438.277H739.3V436a1.684,1.684,0,1,0-3.367,0v2.277h-2.773a1.684,1.684,0,0,0,0,3.368h2.773v2.773a1.684,1.684,0,0,0,3.367,0v-2.773h2.278a1.684,1.684,0,0,0,0-3.368Z" fill="#bad8e5"/>
    <path id="Path_600" data-name="Path 600" d="M1099.145,435.039h-2.278v-2.278a1.683,1.683,0,0,0-3.367,0v2.278h-2.773a1.684,1.684,0,0,0,0,3.367h2.773v2.773a1.683,1.683,0,0,0,3.367,0v-2.773h2.278a1.684,1.684,0,1,0,0-3.367Z" fill="#bad8e5"/>
    <path id="Path_601" data-name="Path 601" d="M713.277,265.041l1.9-1.9a1.795,1.795,0,0,0-2.538-2.538l-1.9,1.9-1.9-1.9a1.795,1.795,0,0,0-2.538,2.538l1.9,1.9-1.9,1.9a1.795,1.795,0,1,0,2.538,2.538l1.9-1.9,1.9,1.9a1.795,1.795,0,0,0,2.538-2.538Z" fill="#dae4ea"/>
    <path id="Path_602" data-name="Path 602" d="M1148.57,388.115l1.9-1.9a1.795,1.795,0,0,0-2.538-2.538l-1.9,1.9-1.9-1.9a1.795,1.795,0,0,0-2.538,2.538l1.9,1.9-1.9,1.9a1.795,1.795,0,1,0,2.538,2.538l1.9-1.9,1.9,1.9a1.795,1.795,0,0,0,2.538-2.538Z" fill="#dae4ea"/>
    <path id="Path_603" data-name="Path 603" d="M900.479,208.038l1.9-1.9a1.795,1.795,0,0,0-2.538-2.538l-1.9,1.9-1.9-1.9a1.795,1.795,0,0,0-2.538,2.538l1.9,1.9-1.9,1.9a1.795,1.795,0,1,0,2.538,2.538l1.9-1.9,1.9,1.9a1.795,1.795,0,0,0,2.538-2.538Z" fill="#dae4ea"/>
    <path id="Path_604" data-name="Path 604" d="M716.516,392.649l1.9-1.9a1.795,1.795,0,0,0-2.538-2.538l-1.9,1.9-1.9-1.9a1.795,1.795,0,0,0-2.538,2.538l1.9,1.9-1.9,1.9a1.795,1.795,0,1,0,2.538,2.538l1.9-1.9,1.9,1.9a1.795,1.795,0,0,0,2.538-2.538Z" fill="#dae4ea"/>
    <circle id="Ellipse_262" data-name="Ellipse 262" cx="3.367" cy="3.367" r="3.367" transform="translate(764.436 219.608)" fill="#a6c5dd"/>
    <circle id="Ellipse_263" data-name="Ellipse 263" cx="3.367" cy="3.367" r="3.367" transform="translate(984.674 239.041)" fill="#a6c5dd"/>
    <circle id="Ellipse_264" data-name="Ellipse 264" cx="3.367" cy="3.367" r="3.367" transform="translate(1086.372 264.303)" fill="#a6c5dd"/>
    <circle id="Ellipse_265" data-name="Ellipse 265" cx="3.367" cy="3.367" r="3.367" transform="translate(680.228 356.933)" fill="#a6c5dd"/>
    <circle id="Ellipse_266" data-name="Ellipse 266" cx="3.367" cy="3.367" r="3.367" transform="translate(1101.918 314.828)" fill="#a6c5dd"/>
    <path id="Path_605" data-name="Path 605" d="M1100.157,378.547c0,71.18-109.657,96.925-195.953,96.925-141.859,0-189.793-99.107-189.793-148.336,0-58.3,60.608-101.05,131.495-101.05C932.2,226.086,1100.157,307.368,1100.157,378.547Z" fill="#dae4ea"/>
    <g id="Group_795" data-name="Group 795">
      <g id="Group_794" data-name="Group 794">
        <g id="Group_793" data-name="Group 793" clip-path="url(#clip-path)">
          <rect id="Rectangle_1395" data-name="Rectangle 1395" width="294.082" height="185.259" rx="15" transform="translate(768.823 271.429)" fill="#fff"/>
          <path id="Path_606" data-name="Path 606" d="M765.165,110.137h-.876v-.876a.648.648,0,0,0-1.3,0v.876h-1.067a.648.648,0,0,0,0,1.3h1.067V112.5a.648.648,0,0,0,1.3,0v-1.066h.876a.648.648,0,1,0,0-1.3Z" fill="#dae4ea"/>
          <path id="Path_607" data-name="Path 607" d="M754.933,134.641l.733-.733a.69.69,0,0,0-.977-.976l-.733.732-.732-.732a.69.69,0,0,0-.977.976l.733.733-.733.732a.691.691,0,0,0,.977.977l.732-.733.733.733a.691.691,0,1,0,.977-.977Z" fill="#dae4ea"/>
          <circle id="Ellipse_267" data-name="Ellipse 267" cx="1.296" cy="1.296" r="1.296" transform="translate(740.322 134.752)" fill="#dae4ea"/>
          <path id="Path_608" data-name="Path 608" d="M738.378,446.323l100.4-49.877,150.28,79.026L751.981,481.3Z" fill="#dae4ea"/>
          <path id="Path_609" data-name="Path 609" d="M724.128,475.472,934,413.935l183.315,37.57L847.2,516.929Z" fill="#bad8e5"/>
          <path id="Path_610" data-name="Path 610" d="M877.755,401.532a2.482,2.482,0,0,0-2.482,2.482v14.56a5.026,5.026,0,0,1-5.02,5.02h-1.047v-27.3a3.034,3.034,0,1,0-6.067,0v33.093h-1.116a4.68,4.68,0,0,1-4.675-4.675V401.532a2.482,2.482,0,1,0-4.964,0V424.71a9.65,9.65,0,0,0,9.639,9.639h1.116v20.408a1.936,1.936,0,0,0,1.931,1.93h2.206a1.935,1.935,0,0,0,1.93-1.93v-26.2h1.047a10,10,0,0,0,9.984-9.984v-14.56A2.482,2.482,0,0,0,877.755,401.532Z" fill="#a6c5dd"/>
          <g id="Group_792" data-name="Group 792">
            <path id="Path_611" data-name="Path 611" d="M1019.951,354.666a4.736,4.736,0,0,0-4.737,4.736v27.787a9.592,9.592,0,0,1-9.581,9.581h-2v-52.1a5.789,5.789,0,1,0-11.579,0v63.156h-2.129A8.932,8.932,0,0,1,981,398.9V354.666a4.737,4.737,0,1,0-9.473,0V398.9a18.417,18.417,0,0,0,18.4,18.4h2.129v38.946a3.7,3.7,0,0,0,3.685,3.684h4.21a3.7,3.7,0,0,0,3.684-3.684v-50h2a19.075,19.075,0,0,0,19.054-19.054V359.4A4.736,4.736,0,0,0,1019.951,354.666Z" fill="#a6c5dd"/>
          </g>
          <circle id="Ellipse_268" data-name="Ellipse 268" cx="18.461" cy="18.461" r="18.461" transform="translate(793.438 303.169)" fill="#bad8e5"/>
        </g>
      </g>
      <rect id="Rectangle_1397" data-name="Rectangle 1397" width="294.082" height="185.259" rx="15" transform="translate(769.147 271.753)" fill="none" stroke="#a6c5dd" stroke-miterlimit="10" stroke-width="3"/>
      <path id="Path_612" data-name="Path 612" d="M768.823,286.327v-5.182a9.716,9.716,0,0,1,9.716-9.716h274.65a9.716,9.716,0,0,1,9.716,9.716v5.182Z" fill="#263675"/>
      <path id="Path_613" data-name="Path 613" d="M853.26,300.578h-.876V299.7a.648.648,0,0,0-1.3,0v.877h-1.067a.647.647,0,0,0,0,1.295h1.067v1.067a.648.648,0,1,0,1.3,0v-1.067h.876a.647.647,0,1,0,0-1.295Z" fill="#dae4ea"/>
      <path id="Path_614" data-name="Path 614" d="M851.317,376.365h-.877v-.876a.647.647,0,1,0-1.295,0v.876h-1.067a.648.648,0,1,0,0,1.3h1.067v1.067a.647.647,0,1,0,1.295,0v-1.067h.877a.648.648,0,1,0,0-1.3Z" fill="#dae4ea"/>
      <path id="Path_615" data-name="Path 615" d="M951.719,335.557h-.876v-.877a.648.648,0,0,0-1.3,0v.877H948.48a.647.647,0,0,0,0,1.295h1.067v1.067a.648.648,0,0,0,1.3,0v-1.067h.876a.647.647,0,1,0,0-1.295Z" fill="#dae4ea"/>
      <path id="Path_616" data-name="Path 616" d="M941.355,377.661h-.876v-.876a.648.648,0,0,0-1.3,0v.876h-1.067a.647.647,0,0,0,0,1.295h1.067v1.067a.648.648,0,0,0,1.3,0v-1.067h.876a.647.647,0,1,0,0-1.295Z" fill="#dae4ea"/>
      <path id="Path_617" data-name="Path 617" d="M883.189,327.673l.733-.733a.69.69,0,0,0-.977-.976l-.733.732-.732-.732a.69.69,0,0,0-.977.976l.733.733-.733.732a.691.691,0,0,0,.977.977l.732-.733.733.733a.691.691,0,0,0,.977-.977Z" fill="#dae4ea"/>
      <path id="Path_618" data-name="Path 618" d="M791.855,387.914l.733-.732a.691.691,0,0,0-.977-.977l-.732.733-.733-.733a.691.691,0,0,0-.977.977l.733.732-.733.733a.69.69,0,0,0,.977.976l.733-.732.732.732a.69.69,0,0,0,.977-.976Z" fill="#dae4ea"/>
      <path id="Path_619" data-name="Path 619" d="M892.258,370.425l.732-.733a.69.69,0,1,0-.976-.976l-.733.732-.733-.732a.69.69,0,1,0-.976.976l.732.733-.732.732a.69.69,0,1,0,.976.977l.733-.733.733.733a.69.69,0,1,0,.976-.977Z" fill="#dae4ea"/>
      <path id="Path_620" data-name="Path 620" d="M914.281,347.105l.733-.732a.691.691,0,1,0-.977-.977l-.732.733-.733-.733a.69.69,0,1,0-.976.977l.732.732-.732.733a.69.69,0,1,0,.976.976l.733-.732.732.732a.69.69,0,0,0,.977-.976Z" fill="#dae4ea"/>
      <path id="Path_621" data-name="Path 621" d="M1041.242,335.446l.732-.733a.69.69,0,1,0-.976-.976l-.733.732-.732-.732a.69.69,0,1,0-.977.976l.733.733-.733.732a.691.691,0,0,0,.977.977l.732-.733.733.733a.69.69,0,0,0,.976-.977Z" fill="#dae4ea"/>
      <path id="Path_622" data-name="Path 622" d="M978.409,305.649l.733-.733a.691.691,0,0,0-.977-.976l-.732.732-.733-.732a.69.69,0,0,0-.976.976l.732.733-.732.732a.69.69,0,0,0,.976.977l.733-.733.732.733a.691.691,0,1,0,.977-.977Z" fill="#dae4ea"/>
      <circle id="Ellipse_269" data-name="Ellipse 269" cx="1.296" cy="1.296" r="1.296" transform="translate(852.384 342.682)" fill="#dae4ea"/>
      <circle id="Ellipse_270" data-name="Ellipse 270" cx="1.296" cy="1.296" r="1.296" transform="translate(904.204 394.503)" fill="#dae4ea"/>
      <circle id="Ellipse_271" data-name="Ellipse 271" cx="1.296" cy="1.296" r="1.296" transform="translate(917.807 303.169)" fill="#dae4ea"/>
      <circle id="Ellipse_272" data-name="Ellipse 272" cx="1.296" cy="1.296" r="1.296" transform="translate(1020.801 308.351)" fill="#dae4ea"/>
      <circle id="Ellipse_273" data-name="Ellipse 273" cx="1.296" cy="1.296" r="1.296" transform="translate(812.223 364.058)" fill="#dae4ea"/>
      <circle id="Ellipse_274" data-name="Ellipse 274" cx="1.296" cy="1.296" r="1.296" transform="translate(1040.881 384.138)" fill="#dae4ea"/>
    </g>
    <rect id="Rectangle_1398" data-name="Rectangle 1398" width="197.566" height="7.773" rx="3.887" transform="translate(821.939 504.621)" fill="#dae4ea"/>
  </g>
</svg>
